<svg width="105" height="34" viewBox="0 0 105 34" fill="none" xmlns="http://www.w3.org/2000/svg">
<path d="M0.783203 1.528H8.3832V33.6H2.3412V7.57H0.783203V1.528ZM23.4342 1.528C30.8442 1.528 33.5802 8.71 33.5802 17.564C33.5802 26.418 30.8442 33.6 23.4342 33.6C16.0622 33.6 13.3262 26.418 13.3262 17.564C13.3262 8.71 16.0622 1.528 23.4342 1.528ZM23.4342 27.596C27.5002 27.596 27.5382 23.112 27.5382 17.564C27.5382 12.054 27.5002 7.57 23.4342 7.57C19.4062 7.57 19.3302 12.054 19.3302 17.564C19.3302 23.112 19.4062 27.596 23.4342 27.596ZM47.8893 1.528C55.2993 1.528 58.0353 8.71 58.0353 17.564C58.0353 26.418 55.2993 33.6 47.8893 33.6C40.5173 33.6 37.7812 26.418 37.7812 17.564C37.7812 8.71 40.5173 1.528 47.8893 1.528ZM47.8893 27.596C51.9553 27.596 51.9933 23.112 51.9933 17.564C51.9933 12.054 51.9553 7.57 47.8893 7.57C43.8613 7.57 43.7853 12.054 43.7853 17.564C43.7853 23.112 43.8613 27.596 47.8893 27.596ZM73.4285 20.604L82.3205 33.6H75.9745L69.9705 24.822L68.5645 26.57V33.6H62.9785V0.843998H68.5645V18.286L70.3505 16.082L74.5305 10.952H81.2945L73.4285 20.604ZM104.272 20.528V24.176H97.584V30.864H93.936V24.176H87.248V20.528H93.936V13.878H97.584V20.528H104.272Z" fill="#E1400F"/>
</svg>
