<svg width="99" height="33" viewBox="0 0 99 33" fill="none" xmlns="http://www.w3.org/2000/svg">
<path d="M0.0654297 0.527998H7.66543V32.6H1.62343V6.57H0.0654297V0.527998ZM22.7164 0.527998C30.1264 0.527998 32.8624 7.71 32.8624 16.564C32.8624 25.418 30.1264 32.6 22.7164 32.6C15.3444 32.6 12.6084 25.418 12.6084 16.564C12.6084 7.71 15.3444 0.527998 22.7164 0.527998ZM22.7164 26.596C26.7824 26.596 26.8204 22.112 26.8204 16.564C26.8204 11.054 26.7824 6.57 22.7164 6.57C18.6884 6.57 18.6124 11.054 18.6124 16.564C18.6124 22.112 18.6884 26.596 22.7164 26.596ZM47.1715 0.527998C54.5815 0.527998 57.3175 7.71 57.3175 16.564C57.3175 25.418 54.5815 32.6 47.1715 32.6C39.7995 32.6 37.0635 25.418 37.0635 16.564C37.0635 7.71 39.7995 0.527998 47.1715 0.527998ZM47.1715 26.596C51.2375 26.596 51.2755 22.112 51.2755 16.564C51.2755 11.054 51.2375 6.57 47.1715 6.57C43.1435 6.57 43.0675 11.054 43.0675 16.564C43.0675 22.112 43.1435 26.596 47.1715 26.596ZM87.8347 0.566H92.0527L73.3947 32.6H69.1767L87.8347 0.566ZM92.0907 10.712C97.1447 10.712 99.0067 15.614 99.0067 21.656C99.0067 27.698 97.1447 32.562 92.0907 32.562C87.0747 32.562 85.1747 27.698 85.1747 21.656C85.1747 15.614 87.0747 10.712 92.0907 10.712ZM92.0907 28.458C94.8647 28.458 94.9027 25.418 94.9027 21.656C94.9027 17.856 94.8647 14.816 92.0907 14.816C89.3547 14.816 89.3167 17.856 89.3167 21.656C89.3167 25.418 89.3547 28.458 92.0907 28.458ZM76.0927 11.51C76.0927 17.552 74.1927 22.454 69.1767 22.454C64.1227 22.454 62.2607 17.552 62.2607 11.51C62.2607 5.468 64.1227 0.566 69.1767 0.566C74.1927 0.566 76.0927 5.468 76.0927 11.51ZM66.3647 11.51C66.3647 15.272 66.4027 18.312 69.1767 18.312C71.9507 18.312 71.9887 15.272 71.9887 11.51C71.9887 7.71 71.9507 4.67 69.1767 4.67C66.4027 4.67 66.3647 7.71 66.3647 11.51Z" fill="#E1400F"/>
</svg>
