<svg width="91" height="33" viewBox="0 0 91 33" fill="none" xmlns="http://www.w3.org/2000/svg">
<path d="M16.3928 14.968C19.2428 16.412 20.6108 19.49 20.6108 22.416C20.6108 28.04 16.9628 32.6 10.4268 32.6C6.05676 32.6 2.48476 30.548 0.926758 27.508L5.86676 23.29C6.09476 25.19 7.69076 26.596 10.4268 26.596C13.5808 26.596 14.5308 24.734 14.5308 22.416C14.5308 19.414 12.8588 17.666 9.70476 17.666V12.498C12.2888 12.498 13.5048 11.396 13.5048 9.42C13.5048 7.824 12.8588 6.57 10.2748 6.57C8.10876 6.57 7.04476 7.368 6.89276 8.584L1.61076 5.506C2.86476 2.542 6.05676 0.527998 10.2748 0.527998C16.1648 0.527998 19.4708 4.518 19.4708 9.42C19.4708 11.51 18.5588 13.638 16.3928 14.968ZM43.7112 22.416C43.7112 28.04 40.3672 32.6 33.8692 32.6C29.1952 32.6 26.1932 30.282 24.8252 26.9L30.2592 24.05C30.5632 25.532 31.5132 26.596 33.8692 26.596C37.0232 26.596 37.6312 24.734 37.6312 22.416C37.6312 20.136 36.8712 17.78 33.7172 17.78C31.8932 17.78 30.7912 18.502 30.3732 19.718L24.9772 17.704L25.3192 6.57L25.5092 0.527998H42.4572V6.57H30.8292L30.6012 13.372C31.7032 12.498 33.2612 12.232 34.4772 12.232C41.0132 12.232 43.7112 16.792 43.7112 22.416ZM58.0152 0.527998C65.4252 0.527998 68.1612 7.71 68.1612 16.564C68.1612 25.418 65.4252 32.6 58.0152 32.6C50.6432 32.6 47.9072 25.418 47.9072 16.564C47.9072 7.71 50.6432 0.527998 58.0152 0.527998ZM58.0152 26.596C62.0812 26.596 62.1192 22.112 62.1192 16.564C62.1192 11.054 62.0812 6.57 58.0152 6.57C53.9872 6.57 53.9112 11.054 53.9112 16.564C53.9112 22.112 53.9872 26.596 58.0152 26.596ZM90.1285 19.528V23.176H83.4405V29.864H79.7925V23.176H73.1045V19.528H79.7925V12.878H83.4405V19.528H90.1285Z" fill="#E1400F"/>
</svg>
