<svg width="150" height="29" viewBox="0 0 150 29" fill="none" xmlns="http://www.w3.org/2000/svg">
<path d="M10.7415 17.756V20.6H0.859497V5.426H3.7035V17.756H10.7415ZM18.0443 9.746C20.4383 9.746 22.7423 11.546 22.7423 15.452C22.7423 15.686 22.7423 15.938 22.7243 16.19H15.8123C15.8303 16.262 15.8483 16.316 15.8663 16.388C16.1903 17.522 17.0363 18.08 18.0443 18.08C18.7463 18.08 19.5023 17.792 19.9343 17.216L22.1483 18.656C21.2483 19.97 19.6823 20.726 18.0443 20.726C15.2903 20.726 13.0763 18.638 13.0763 15.254C13.0763 11.87 15.2903 9.746 18.0443 9.746ZM15.9383 14.012H19.9523C19.7183 12.932 18.9083 12.392 17.9723 12.392C17.0363 12.392 16.2083 12.986 15.9383 14.012ZM32.8334 9.872H34.8134V20.6H32.1674V20.06C31.7174 20.438 30.9074 20.726 30.1334 20.726C27.3974 20.726 25.3634 18.638 25.3634 15.254C25.3634 11.87 27.4154 9.746 30.1694 9.746C30.8174 9.746 31.6454 9.998 32.1674 10.394L32.8334 9.872ZM32.1674 17.126V13.346C31.7354 12.716 31.0874 12.392 30.3314 12.392C29.0534 12.392 28.0094 13.328 28.0094 15.254C28.0094 17.162 29.0534 18.08 30.3314 18.08C31.0874 18.08 31.7534 17.774 32.1674 17.126ZM43.6383 12.914C43.3503 12.464 42.8643 12.248 42.3063 12.248C41.2983 12.248 40.2543 13.058 39.8043 13.796V20.6H37.1583V9.872H39.3363L39.8043 10.844C40.7043 10.142 41.6583 9.584 42.8823 9.584C43.0983 9.584 43.4763 9.656 43.6383 9.728V12.914ZM54.9465 20.6H52.3005V13.976C52.3005 12.788 51.5625 12.392 50.8065 12.392C49.9245 12.392 49.0785 13.058 48.6285 13.796V20.6H45.9825V9.872H48.1605L48.6285 10.844C49.3305 10.25 50.5185 9.746 51.5445 9.746C52.8225 9.746 53.6865 10.196 54.2085 10.916C54.7485 11.618 54.9465 12.59 54.9465 13.58V20.6ZM79.3678 20.6H76.4878L75.5878 11.564L72.4378 20.474L72.3838 20.6H69.6478L69.5938 20.474L66.4438 11.582L65.5438 20.6H62.6818L64.1938 5.426H67.0918L71.0158 16.478L74.9398 5.426H77.8378L79.3678 20.6ZM86.6693 9.746C89.4053 9.746 91.6373 11.87 91.6373 15.254C91.6373 18.638 89.4053 20.726 86.6693 20.726C83.9333 20.726 81.7013 18.638 81.7013 15.254C81.7013 11.87 83.9333 9.746 86.6693 9.746ZM86.6693 18.08C87.9473 18.08 88.9913 17.162 88.9913 15.254C88.9913 13.328 87.9473 12.392 86.6693 12.392C85.3913 12.392 84.3473 13.328 84.3473 15.254C84.3473 17.162 85.3913 18.08 86.6693 18.08ZM100.451 12.914C100.163 12.464 99.6768 12.248 99.1188 12.248C98.1108 12.248 97.0668 13.058 96.6168 13.796V20.6H93.9708V9.872H96.1488L96.6168 10.844C97.5168 10.142 98.4708 9.584 99.6948 9.584C99.9108 9.584 100.289 9.656 100.451 9.728V12.914ZM107.341 9.746C109.735 9.746 112.039 11.546 112.039 15.452C112.039 15.686 112.039 15.938 112.021 16.19H105.109C105.127 16.262 105.145 16.316 105.163 16.388C105.487 17.522 106.333 18.08 107.341 18.08C108.043 18.08 108.799 17.792 109.231 17.216L111.445 18.656C110.545 19.97 108.979 20.726 107.341 20.726C104.587 20.726 102.373 18.638 102.373 15.254C102.373 11.87 104.587 9.746 107.341 9.746ZM105.235 14.012H109.249C109.015 12.932 108.205 12.392 107.269 12.392C106.333 12.392 105.505 12.986 105.235 14.012Z" fill="#E1400F"/>
<path d="M149.409 14.1833L141.909 8.35C141.309 7.88333 140.409 7.88333 139.809 8.35C139.209 8.81667 139.209 9.51667 139.809 9.98333L144.759 13.8333H133.359C132.459 13.8333 131.859 14.3 131.859 15C131.859 15.7 132.459 16.1667 133.359 16.1667H144.759L139.809 20.0167C139.209 20.4833 139.209 21.1833 139.809 21.65C140.409 22.1167 141.309 22.1167 141.909 21.65L149.409 15.8167C150.009 15.4667 150.009 14.65 149.409 14.1833Z" fill="#E1400F"/>
</svg>
