<svg width="132" height="16" viewBox="0 0 132 16" fill="none" xmlns="http://www.w3.org/2000/svg">
<path d="M3.87801 4.332C3.87801 7.302 12.014 4.89 12.014 10.974C12.014 13.908 9.69201 15.762 6.21801 15.762C3.39201 15.762 1.17801 14.34 0.458008 12.504L3.10401 11.082C3.23001 12.036 4.36401 12.9 6.21801 12.9C8.23401 12.9 9.04401 12.18 9.04401 11.082C9.04401 7.716 0.926008 10.308 0.926008 4.458C0.926008 2.136 2.90601 0.264 6.02001 0.264C8.12601 0.264 9.96201 0.93 11.51 2.622L9.49401 4.746C8.79201 3.738 7.58601 2.964 6.11001 2.964C4.54401 2.964 3.87801 3.648 3.87801 4.332ZM19.3303 4.746C21.7243 4.746 24.0283 6.546 24.0283 10.452C24.0283 10.686 24.0283 10.938 24.0103 11.19H17.0983C17.1163 11.262 17.1343 11.316 17.1523 11.388C17.4763 12.522 18.3223 13.08 19.3303 13.08C20.0323 13.08 20.7883 12.792 21.2203 12.216L23.4343 13.656C22.5343 14.97 20.9683 15.726 19.3303 15.726C16.5763 15.726 14.3623 13.638 14.3623 10.254C14.3623 6.87 16.5763 4.746 19.3303 4.746ZM17.2243 9.012H21.2383C21.0043 7.932 20.1943 7.392 19.2583 7.392C18.3223 7.392 17.4943 7.986 17.2243 9.012ZM33.1546 12.126L35.3506 13.602C34.4506 14.952 32.9746 15.726 31.3186 15.726C28.5826 15.726 26.3506 13.638 26.3506 10.254C26.3506 6.87 28.5826 4.746 31.3186 4.746C32.9746 4.746 34.4506 5.52 35.3506 6.87L33.1546 8.346C32.7226 7.698 32.0566 7.392 31.3186 7.392C30.0406 7.392 28.9966 8.328 28.9966 10.254C28.9966 12.162 30.0406 13.08 31.3186 13.08C32.0746 13.08 32.7406 12.756 33.1546 12.126ZM37.7065 11.892V4.872H40.3525V11.496C40.3525 12.684 41.0725 13.062 41.8465 13.062C42.7285 13.062 43.5565 12.396 44.0245 11.676V4.872H46.6705V15.6H44.0245V14.61C43.3045 15.204 42.1165 15.726 41.1085 15.726C38.5345 15.726 37.6885 13.872 37.6885 11.892H37.7065ZM55.4888 7.914C55.2008 7.464 54.7148 7.248 54.1568 7.248C53.1488 7.248 52.1048 8.058 51.6548 8.796V15.6H49.0088V4.872H51.1868L51.6548 5.844C52.5548 5.142 53.5088 4.584 54.7328 4.584C54.9488 4.584 55.3268 4.656 55.4888 4.728V7.914ZM62.3791 4.746C64.7731 4.746 67.0771 6.546 67.0771 10.452C67.0771 10.686 67.0771 10.938 67.0591 11.19H60.1471C60.1651 11.262 60.1831 11.316 60.2011 11.388C60.5251 12.522 61.3711 13.08 62.3791 13.08C63.0811 13.08 63.8371 12.792 64.2691 12.216L66.4831 13.656C65.5831 14.97 64.0171 15.726 62.3791 15.726C59.6251 15.726 57.4111 13.638 57.4111 10.254C57.4111 6.87 59.6251 4.746 62.3791 4.746ZM60.2731 9.012H64.2871C64.0531 7.932 63.2431 7.392 62.3071 7.392C61.3711 7.392 60.5431 7.986 60.2731 9.012ZM84.0587 0.426H86.9207V15.6H84.0587L77.9567 5.538V15.6H75.0947V0.426H77.9567L84.0587 10.47V0.426ZM94.2307 4.746C96.6247 4.746 98.9287 6.546 98.9287 10.452C98.9287 10.686 98.9287 10.938 98.9107 11.19H91.9987C92.0167 11.262 92.0347 11.316 92.0527 11.388C92.3767 12.522 93.2227 13.08 94.2307 13.08C94.9327 13.08 95.6887 12.792 96.1207 12.216L98.3347 13.656C97.4347 14.97 95.8687 15.726 94.2307 15.726C91.4767 15.726 89.2627 13.638 89.2627 10.254C89.2627 6.87 91.4767 4.746 94.2307 4.746ZM92.1247 9.012H96.1387C95.9047 7.932 95.0947 7.392 94.1587 7.392C93.2227 7.392 92.3947 7.986 92.1247 9.012ZM105.792 10.02L109.104 15.6H106.188L104.334 12.144L102.462 15.6H99.5459L102.876 10.02L99.8159 4.872H102.732L104.334 7.878L105.936 4.872H108.852L105.792 10.02ZM111.464 11.892V4.872H114.11V11.496C114.11 12.684 114.83 13.062 115.604 13.062C116.486 13.062 117.314 12.396 117.782 11.676V4.872H120.428V15.6H117.782V14.61C117.062 15.204 115.874 15.726 114.866 15.726C112.292 15.726 111.446 13.872 111.446 11.892H111.464ZM125.989 7.698C125.989 8.94 131.209 8.508 131.209 12.288C131.209 14.826 128.977 15.888 126.979 15.888C125.179 15.888 123.487 15.042 122.767 13.728L125.179 12.216C125.377 12.774 126.133 13.134 126.835 13.134C127.609 13.134 128.293 12.792 128.293 12.198C128.293 10.452 123.073 11.388 123.073 7.608V7.446C123.163 5.484 125.179 4.584 126.925 4.584C128.293 4.584 129.643 4.944 130.993 6.132L129.337 8.184C128.635 7.338 127.663 7.05 127.141 7.05C126.241 7.05 125.989 7.374 125.989 7.698Z" fill="#DF3D0F"/>
</svg>
